<svg xmlns="http://www.w3.org/2000/svg" viewBox="0 0 1200 675"><defs><linearGradient id="g" x2="1" y2="1"><stop stop-color="#e8f5ef"/><stop offset=".55" stop-color="#f8f1ea"/><stop offset="1" stop-color="#e7e9f5"/></linearGradient></defs><rect width="1200" height="675" rx="48" fill="url(#g)"/><circle cx="250" cy="180" r="110" fill="#fff" opacity=".5"/><circle cx="980" cy="520" r="145" fill="#fff" opacity=".45"/><path d="M590 120c-130 35-205 145-183 274 19 112 113 188 229 174 104-13 184-89 197-192 14-112-52-217-160-254-25-9-55-10-83-2Z" fill="#f1d2c5"/><path d="M597 168c-80 24-128 91-119 171 9 75 67 133 143 141 78 8 145-34 174-102-58 23-112 6-145-43-37-55-53-111-53-167Z" fill="#fff" opacity=".7"/><path d="M455 515c90-70 200-83 330-39" fill="none" stroke="#164936" stroke-width="18" stroke-linecap="round"/><g fill="#164936"><circle cx="535" cy="285" r="8"/><circle cx="670" cy="285" r="8"/></g><path d="M570 355c30 20 60 20 90 0" fill="none" stroke="#9e6555" stroke-width="9" stroke-linecap="round"/><path d="M220 460c55-80 115-80 170 0-55 78-115 78-170 0Z" fill="none" stroke="#164936" stroke-width="12"/><circle cx="305" cy="460" r="28" fill="#164936"/></svg>
